# This file uses centimeters as units for non-parametric coordinates.

mtllib Pressure Pad.mtl
g default
v -0.855853 -0.271302 0.968287
v -0.968287 -0.271302 0.855853
v 0.968287 -0.271302 0.855853
v 0.855853 -0.271302 0.968287
v -0.724979 -0.020929 0.640796
v -0.640796 -0.020929 0.724979
v -0.412477 0.015792 0.412477
v 0.412477 0.015792 0.412477
v 0.640796 -0.020929 0.724979
v 0.724979 -0.020929 0.640796
v -0.724979 -0.020929 -0.640796
v -0.412477 0.015792 -0.412477
v -0.640796 -0.020929 -0.724979
v 0.640796 -0.020929 -0.724979
v 0.412477 0.015792 -0.412477
v 0.724979 -0.020929 -0.640796
v -0.968287 -0.271302 -0.855853
v -0.855853 -0.271302 -0.968287
v 0.855853 -0.271302 -0.968287
v 0.968287 -0.271302 -0.855853
v -0.764096 -0.065573 0.864476
v 0.764096 -0.065573 0.864476
v 0.864476 -0.065573 0.764096
v 0.864476 -0.065573 -0.764096
v 0.764096 -0.065573 -0.864476
v -0.764096 -0.065573 -0.864476
v -0.864476 -0.065573 -0.764096
v -0.864476 -0.065573 0.764096
v -0.550648 0.014356 0.510147
v -0.550648 0.014356 -0.510147
v -0.510147 0.014356 0.550648
v 0.510147 0.014356 0.550648
v 0.550648 0.014356 0.510147
v 0.550648 0.014356 -0.510147
v -0.510147 0.014356 -0.550648
v 0.510147 0.014356 -0.550648
vt 0.315310 0.235722
vt 0.949970 0.261454
vt 0.361164 0.395464
vt 0.361229 0.825248
vt 0.388787 0.363644
vt 0.825272 0.363463
vt 0.852978 0.395322
vt 0.264190 0.959086
vt 0.467075 0.749121
vt 0.747173 0.749055
vt 0.853046 0.825155
vt 0.978976 0.897110
vt 0.315523 0.985070
vt 0.898848 0.984921
vt 0.898632 0.235480
vt 0.467025 0.471556
vt 0.747119 0.471458
vt 0.388904 0.857096
vt 0.825395 0.856989
vt 0.235250 0.323518
vt 0.347524 0.313613
vt 0.866489 0.313404
vt 0.901923 0.354071
vt 0.906759 0.880739
vt 0.866649 0.907019
vt 0.347685 0.907157
vt 0.312291 0.866493
vt 0.307419 0.339906
vt 0.419275 0.438641
vt 0.419342 0.782073
vt 0.433404 0.424540
vt 0.780705 0.424412
vt 0.794850 0.438498
vt 0.794921 0.781979
vt 0.433488 0.796165
vt 0.780786 0.796074
vt 0.793524 0.781555
vt 0.793466 0.438941
vt 0.857057 0.391509
vt 0.420735 0.781636
vt 0.357130 0.829050
vt 0.420677 0.439057
vt 0.312214 0.354234
vt 0.263992 0.261747
vt 0.307555 0.880894
vt 0.902001 0.866390
vt 0.950170 0.958906
vt 0.906621 0.339653
vt 0.857157 0.828922
vt 0.235335 0.897234
vt 0.357031 0.391711
vt 0.978888 0.323327
vn -0.762036 0.645847 0.046712
vn -0.046712 0.645847 0.762036
vn -0.013981 0.966193 0.257440
vn -0.257440 0.966193 0.013981
vn 0.046712 0.645847 0.762036
vn 0.762036 0.645847 0.046712
vn 0.257440 0.966193 0.013981
vn 0.013981 0.966193 0.257440
vn -0.153090 0.988192 0.006405
vn -0.153090 0.988192 -0.006405
vn -0.257440 0.966193 -0.013981
vn -0.001784 0.999997 0.001784
vn -0.006405 0.988192 0.153090
vn 0.006405 0.988192 0.153090
vn 0.001784 0.999997 0.001784
vn 0.153090 0.988192 0.006405
vn 0.153090 0.988191 -0.006405
vn 0.001784 0.999997 -0.001784
vn -0.013981 0.966193 -0.257440
vn -0.046712 0.645847 -0.762036
vn -0.762036 0.645847 -0.046712
vn -0.006405 0.988192 -0.153090
vn 0.006405 0.988192 -0.153090
vn 0.013981 0.966193 -0.257440
vn 0.257440 0.966193 -0.013981
vn 0.762036 0.645847 -0.046712
vn 0.046712 0.645847 -0.762036
vn -0.001784 0.999997 -0.001784
vn -0.057501 0.470074 0.880752
vn 0.057501 0.470074 0.880752
vn 0.880752 0.470074 0.057501
vn 0.880752 0.470074 -0.057501
vn 0.057501 0.470074 -0.880752
vn -0.057501 0.470074 -0.880752
vn -0.880752 0.470074 -0.057501
vn -0.880752 0.470074 0.057501
s 1
g Step_Piece_Low
usemtl initialShadingGroup
f 28/28/1 21/21/2 6/5/3 5/51/4
f 22/22/5 23/48/6 10/39/7 9/6/8
f 5/3/4 29/42/9 30/40/10 11/4/11
f 7/16/12 31/31/13 32/32/14 8/17/15
f 8/17/15 33/38/16 34/37/17 15/10/18
f 11/41/11 13/18/19 26/26/20 27/45/21
f 13/18/19 35/35/22 36/36/23 14/19/24
f 14/19/24 16/49/25 24/24/26 25/25/27
f 21/21/2 22/22/5 9/6/8 6/5/3
f 7/16/12 8/17/15 15/10/18 12/9/28
f 13/18/19 14/19/24 25/25/27 26/26/20
f 23/23/6 24/46/26 16/11/25 10/7/7
f 27/27/21 28/43/1 5/3/4 11/4/11
f 5/51/4 6/5/3 31/31/13 29/29/9
f 8/17/15 32/32/14 33/33/16
f 11/41/11 30/30/10 35/35/22 13/18/19
f 14/19/24 36/36/23 34/34/17 16/49/25
f 1/1/29 4/15/30 22/22/5 21/21/2
f 4/15/30 3/2/31 23/48/6 22/22/5
f 3/52/31 20/12/32 24/46/26 23/23/6
f 25/25/27 24/24/26 20/47/32 19/14/33
f 26/26/20 25/25/27 19/14/33 18/13/34
f 27/45/21 26/26/20 18/13/34 17/8/35
f 17/50/35 2/20/36 28/43/1 27/27/21
f 2/44/36 1/1/29 21/21/2 28/28/1
f 30/40/10 29/42/9 7/16/12 12/9/28
f 32/32/14 31/31/13 6/5/3 9/6/8
f 34/37/17 33/38/16 10/7/7 16/11/25
f 36/36/23 35/35/22 12/9/28 15/10/18
f 29/29/9 31/31/13 7/16/12
f 33/33/16 32/32/14 9/6/8 10/39/7
f 35/35/22 30/30/10 12/9/28
f 34/34/17 36/36/23 15/10/18
g default
v -0.855853 -0.116849 0.968287
v -0.968287 -0.116849 0.855853
v 0.968287 -0.116849 0.855853
v 0.855853 -0.116849 0.968287
v -0.724979 0.133524 0.640796
v -0.640796 0.133524 0.724979
v -0.412477 0.170245 0.412477
v 0.412477 0.170245 0.412477
v 0.640796 0.133524 0.724979
v 0.724979 0.133524 0.640796
v -0.724979 0.133524 -0.640796
v -0.412477 0.170245 -0.412477
v -0.640796 0.133524 -0.724979
v 0.640796 0.133524 -0.724979
v 0.412477 0.170245 -0.412477
v 0.724979 0.133524 -0.640796
v -0.968287 -0.116849 -0.855853
v -0.855853 -0.116849 -0.968287
v 0.855853 -0.116849 -0.968287
v 0.968287 -0.116849 -0.855853
v -0.764096 0.088881 0.864476
v 0.764096 0.088881 0.864476
v 0.864476 0.088881 0.764096
v 0.864476 0.088881 -0.764096
v 0.764096 0.088881 -0.864476
v -0.764096 0.088881 -0.864476
v -0.864476 0.088881 -0.764096
v -0.864476 0.088881 0.764096
v -0.550648 0.168810 0.510147
v -0.550648 0.168810 -0.510147
v -0.510147 0.168810 0.550648
v 0.510147 0.168810 0.550648
v 0.550648 0.168810 0.510147
v 0.550648 0.168810 -0.510147
v -0.510147 0.168810 -0.550648
v 0.510147 0.168810 -0.550648
vt 0.315310 0.235722
vt 0.949970 0.261454
vt 0.361164 0.395464
vt 0.361229 0.825248
vt 0.388787 0.363644
vt 0.825272 0.363463
vt 0.852978 0.395322
vt 0.264190 0.959086
vt 0.467075 0.749121
vt 0.747173 0.749055
vt 0.853046 0.825155
vt 0.978976 0.897110
vt 0.315523 0.985070
vt 0.898848 0.984921
vt 0.898632 0.235480
vt 0.467025 0.471556
vt 0.747119 0.471458
vt 0.388904 0.857096
vt 0.825395 0.856989
vt 0.235250 0.323518
vt 0.347524 0.313613
vt 0.866489 0.313404
vt 0.901923 0.354071
vt 0.906759 0.880739
vt 0.866649 0.907019
vt 0.347685 0.907157
vt 0.312291 0.866493
vt 0.307419 0.339906
vt 0.419275 0.438641
vt 0.419342 0.782073
vt 0.433404 0.424540
vt 0.780705 0.424412
vt 0.794850 0.438498
vt 0.794921 0.781979
vt 0.433488 0.796165
vt 0.780786 0.796074
vt 0.793524 0.781555
vt 0.793466 0.438941
vt 0.857057 0.391509
vt 0.420735 0.781636
vt 0.357130 0.829050
vt 0.420677 0.439057
vt 0.312214 0.354234
vt 0.263992 0.261747
vt 0.307555 0.880894
vt 0.902001 0.866390
vt 0.950170 0.958906
vt 0.906621 0.339653
vt 0.857157 0.828922
vt 0.235335 0.897234
vt 0.357031 0.391711
vt 0.978888 0.323327
vn -0.762036 0.645847 0.046712
vn -0.046712 0.645847 0.762036
vn -0.013981 0.966193 0.257440
vn -0.257440 0.966193 0.013981
vn 0.046712 0.645847 0.762036
vn 0.762036 0.645847 0.046712
vn 0.257440 0.966193 0.013981
vn 0.013981 0.966193 0.257440
vn -0.153090 0.988192 0.006405
vn -0.153090 0.988192 -0.006405
vn -0.257440 0.966193 -0.013981
vn -0.001784 0.999997 0.001784
vn -0.006405 0.988192 0.153090
vn 0.006405 0.988192 0.153090
vn 0.001784 0.999997 0.001784
vn 0.153090 0.988192 0.006405
vn 0.153090 0.988191 -0.006405
vn 0.001784 0.999997 -0.001784
vn -0.013981 0.966193 -0.257440
vn -0.046712 0.645847 -0.762036
vn -0.762036 0.645847 -0.046712
vn -0.006405 0.988192 -0.153090
vn 0.006405 0.988192 -0.153090
vn 0.013981 0.966193 -0.257440
vn 0.257440 0.966193 -0.013981
vn 0.762036 0.645847 -0.046712
vn 0.046712 0.645847 -0.762036
vn -0.001784 0.999997 -0.001784
vn -0.057501 0.470074 0.880752
vn 0.057501 0.470074 0.880752
vn 0.880752 0.470074 0.057501
vn 0.880752 0.470074 -0.057501
vn 0.057501 0.470074 -0.880752
vn -0.057501 0.470074 -0.880752
vn -0.880752 0.470074 -0.057501
vn -0.880752 0.470074 0.057501
s 1
g Step_Piece_High
usemtl initialShadingGroup
f 64/80/37 57/73/38 42/57/39 41/103/40
f 58/74/41 59/100/42 46/91/43 45/58/44
f 41/55/40 65/94/45 66/92/46 47/56/47
f 43/68/48 67/83/49 68/84/50 44/69/51
f 44/69/51 69/90/52 70/89/53 51/62/54
f 47/93/47 49/70/55 62/78/56 63/97/57
f 49/70/55 71/87/58 72/88/59 50/71/60
f 50/71/60 52/101/61 60/76/62 61/77/63
f 57/73/38 58/74/41 45/58/44 42/57/39
f 43/68/48 44/69/51 51/62/54 48/61/64
f 49/70/55 50/71/60 61/77/63 62/78/56
f 59/75/42 60/98/62 52/63/61 46/59/43
f 63/79/57 64/95/37 41/55/40 47/56/47
f 41/103/40 42/57/39 67/83/49 65/81/45
f 44/69/51 68/84/50 69/85/52
f 47/93/47 66/82/46 71/87/58 49/70/55
f 50/71/60 72/88/59 70/86/53 52/101/61
f 37/53/65 40/67/66 58/74/41 57/73/38
f 40/67/66 39/54/67 59/100/42 58/74/41
f 39/104/67 56/64/68 60/98/62 59/75/42
f 61/77/63 60/76/62 56/99/68 55/66/69
f 62/78/56 61/77/63 55/66/69 54/65/70
f 63/97/57 62/78/56 54/65/70 53/60/71
f 53/102/71 38/72/72 64/95/37 63/79/57
f 38/96/72 37/53/65 57/73/38 64/80/37
f 66/92/46 65/94/45 43/68/48 48/61/64
f 68/84/50 67/83/49 42/57/39 45/58/44
f 70/89/53 69/90/52 46/59/43 52/63/61
f 72/88/59 71/87/58 48/61/64 51/62/54
f 65/81/45 67/83/49 43/68/48
f 69/85/52 68/84/50 45/58/44 46/91/43
f 71/87/58 66/82/46 48/61/64
f 70/86/53 72/88/59 51/62/54
g default
v -1.233845 -0.074920 1.366344
v -1.366344 -0.074920 1.233845
v -1.192630 -0.047848 1.325130
v -1.325130 -0.047848 1.192630
v -1.260917 -0.116135 1.393416
v -1.393416 -0.116135 1.260917
v -1.393416 -0.275493 1.260917
v -1.260917 -0.275493 1.393416
v -0.892467 -0.275493 1.393416
v -0.892467 -0.116135 1.393416
v -0.873305 -0.074920 1.366344
v -0.844134 -0.047848 1.325130
v -0.937916 -0.047848 1.192630
v -1.393416 -0.275493 0.974184
v -1.393416 -0.116135 0.974184
v -1.366344 -0.074920 0.953268
v -1.325130 -0.047848 0.921426
v -1.007659 -0.047848 0.990569
v -0.015227 -0.275493 1.393416
v -0.015227 -0.116135 1.393416
v -0.015227 -0.074920 1.366344
v -0.015227 -0.047848 1.325130
v -0.015227 -0.047848 1.192630
v -0.015227 -0.047848 0.990569
v 1.203390 -0.074920 1.366344
v 1.335890 -0.074920 1.233845
v 1.162176 -0.047848 1.325130
v 1.294675 -0.047848 1.192630
v 1.230462 -0.116135 1.393416
v 1.362962 -0.116135 1.260917
v 1.362962 -0.275493 1.260917
v 1.230462 -0.275493 1.393416
v 0.862012 -0.275493 1.393416
v 0.862012 -0.116135 1.393416
v 0.842851 -0.074920 1.366344
v 0.813680 -0.047848 1.325130
v 0.907462 -0.047848 1.192630
v 1.362962 -0.275493 0.974184
v 1.362962 -0.116135 0.974184
v 1.335890 -0.074920 0.953268
v 1.294675 -0.047848 0.921426
v 0.977204 -0.047848 0.990569
v -1.393416 -0.275493 0.010331
v -1.393416 -0.116135 0.010331
v -1.366344 -0.074920 0.010331
v -1.325130 -0.047848 0.010331
v -1.007659 -0.047848 0.010331
v 0.977204 -0.047848 0.010331
v 1.294675 -0.047848 0.010331
v 1.335890 -0.074920 0.010331
v 1.362962 -0.116135 0.010331
v 1.362962 -0.275493 0.010331
v -1.233845 -0.074920 -1.345682
v -1.366344 -0.074920 -1.213182
v -1.192630 -0.047848 -1.304467
v -1.325130 -0.047848 -1.171968
v -1.260917 -0.116135 -1.372754
v -1.393416 -0.116135 -1.240254
v -1.393416 -0.275493 -1.240254
v -1.260917 -0.275493 -1.372754
v -0.892467 -0.275493 -1.372754
v -0.892467 -0.116135 -1.372754
v -0.873305 -0.074920 -1.345682
v -0.844134 -0.047848 -1.304467
v -0.937916 -0.047848 -1.171968
v -1.393416 -0.275493 -0.953522
v -1.393416 -0.116135 -0.953522
v -1.366344 -0.074920 -0.932606
v -1.325130 -0.047848 -0.900764
v -1.007659 -0.047848 -0.969907
v -0.015227 -0.275493 -1.372754
v -0.015227 -0.116135 -1.372754
v -0.015227 -0.074920 -1.345682
v -0.015227 -0.047848 -1.304467
v -0.015227 -0.047848 -1.171968
v -0.015227 -0.047848 -0.969907
v 1.203390 -0.074920 -1.345682
v 1.335890 -0.074920 -1.213182
v 1.162176 -0.047848 -1.304467
v 1.294675 -0.047848 -1.171968
v 1.230462 -0.116135 -1.372754
v 1.362962 -0.116135 -1.240254
v 1.362962 -0.275493 -1.240254
v 1.230462 -0.275493 -1.372754
v 0.862012 -0.275493 -1.372754
v 0.862012 -0.116135 -1.372754
v 0.842851 -0.074920 -1.345682
v 0.813680 -0.047848 -1.304467
v 0.907462 -0.047848 -1.171968
v 1.362962 -0.275493 -0.953522
v 1.362962 -0.116135 -0.953522
v 1.335890 -0.074920 -0.932606
v 1.294675 -0.047848 -0.900764
v 0.977204 -0.047848 -0.969907
v -0.015227 -0.275493 0.953760
v 0.939829 -0.275493 0.953760
v 0.939829 -0.275493 0.010331
v 0.939829 -0.275493 -0.933098
v -0.015227 -0.275493 -0.933098
v -0.970284 -0.275493 -0.933098
v -0.970284 -0.275493 0.010331
v -0.970284 -0.275493 0.953760
vt 0.173222 0.565755
vt 0.166526 0.565217
vt 0.199736 0.580135
vt 0.171672 0.585513
vt 0.177701 0.582701
vt 0.182898 0.580929
vt 0.193581 0.560980
vt 0.178526 0.565532
vt 0.199131 0.625188
vt 0.176425 0.622528
vt 0.168951 0.624095
vt 0.161106 0.626985
vt 0.144330 0.608690
vt 0.184163 0.535338
vt 0.160058 0.538940
vt 0.151505 0.537455
vt 0.142118 0.534402
vt 0.116749 0.588783
vt 0.182790 0.760361
vt 0.157499 0.757711
vt 0.149631 0.756840
vt 0.141737 0.755953
vt 0.120413 0.753460
vt 0.087700 0.749363
vt 0.130896 0.951897
vt 0.971018 0.128038
vt 0.975693 0.137368
vt 0.137318 0.956394
vt 0.124240 0.945594
vt 0.963681 0.118659
vt 0.148182 0.992178
vt 0.160849 0.962349
vt 0.136004 0.896680
vt 0.128443 0.891281
vt 0.143668 0.900468
vt 0.169349 0.903066
vt 0.105431 0.904764
vt 0.922488 0.135462
vt 0.921355 0.164357
vt 0.918997 0.126403
vt 0.913496 0.117307
vt 0.927705 0.059950
vt 0.175806 0.375598
vt 0.148632 0.376208
vt 0.140170 0.376412
vt 0.131692 0.376593
vt 0.076537 0.377885
vt 0.749161 0.056974
vt 0.748623 0.113773
vt 0.748515 0.122494
vt 0.748425 0.131202
vt 0.748077 0.159155
vt 0.174398 0.143539
vt 0.155577 0.131994
vt 0.152542 0.138077
vt 0.170794 0.149273
vt 0.179355 0.137313
vt 0.158625 0.124440
vt 0.138344 0.154050
vt 0.165390 0.169814
vt 0.223881 0.143099
vt 0.228187 0.135307
vt 0.221064 0.150789
vt 0.220838 0.175579
vt 0.212294 0.114693
vt 0.362367 0.134443
vt 0.362846 0.112965
vt 0.362209 0.142375
vt 0.362057 0.150256
vt 0.361642 0.175524
vt 0.146887 0.207728
vt 0.111209 0.118001
vt 0.138310 0.211367
vt 0.129754 0.216929
vt 0.073844 0.204887
vt 0.363736 0.079865
vt 0.538709 0.156688
vt 0.540769 0.161708
vt 0.555708 0.156535
vt 0.555309 0.151350
vt 0.555669 0.144733
vt 0.535575 0.150905
vt 0.542583 0.178237
vt 0.560625 0.171020
vt 0.493483 0.143227
vt 0.496940 0.150857
vt 0.499043 0.158204
vt 0.498033 0.181073
vt 0.510730 0.124925
vt 0.581474 0.137539
vt 0.584540 0.162005
vt 0.583136 0.128881
vt 0.586395 0.119378
vt 0.529046 0.095561
vt 0.049854 0.744379
vt 0.922093 0.017761
vt 0.749418 0.015144
vt 0.526435 0.055995
vt 0.364870 0.041297
vt 0.033150 0.211598
vt 0.035937 0.378913
vt 0.077924 0.588152
vt 0.578260 0.019687
vt 0.202792 0.043861
vt 0.033300 0.904406
vt 0.045398 0.545377
vt 0.122888 0.981275
vt 0.974362 0.166803
vt 0.113916 0.975693
vt 0.071184 0.914127
vt 0.058688 0.967798
vt 0.104395 0.968204
vt 0.086569 0.549845
vt 0.197801 0.082936
vt 0.572341 0.061808
vt 0.143280 0.087512
vt 0.137233 0.095864
vt 0.131333 0.102967
vt 0.174659 0.207799
vn -0.166754 0.769806 0.616110
vn -0.597336 0.778454 0.192871
vn -0.518069 0.680594 0.518070
vn -0.518069 0.680594 0.518070
vn -0.035579 0.989763 0.138216
vn -0.089336 0.995621 0.027531
vn -0.707107 0.000000 0.707107
vn -0.707107 0.000000 0.707107
vn -0.707107 0.000000 0.707107
vn -0.707107 0.000000 0.707107
vn 0.000000 0.702643 0.711543
vn 0.000000 0.835817 0.549009
vn 0.000000 0.549011 0.835815
vn 0.000000 0.549011 0.835815
vn 0.000000 0.000000 1.000000
vn 0.000000 0.000000 1.000000
vn 0.000000 0.000000 1.000000
vn 0.000000 0.000000 1.000000
vn 0.000000 1.000000 -0.000000
vn 0.000000 1.000000 0.000000
vn 0.000000 1.000000 -0.000000
vn 0.000000 1.000000 -0.000000
vn 0.000000 0.705036 0.709171
vn 0.000000 0.835817 0.549009
vn 0.000000 0.549011 0.835815
vn 0.000000 0.000000 1.000000
vn 0.000000 0.000000 1.000000
vn -1.000000 0.000000 0.000000
vn -1.000000 0.000000 0.000000
vn -1.000000 0.000000 0.000000
vn -1.000000 0.000000 0.000000
vn -0.835814 0.549013 -0.000000
vn -0.712607 0.701564 -0.000000
vn -0.835814 0.549013 -0.000000
vn -0.549010 0.835816 -0.000000
vn 0.000000 1.000000 0.000000
vn 0.000000 1.000000 0.000000
vn 0.000000 1.000000 0.000000
vn 0.000000 1.000000 0.000000
vn -0.549011 0.835815 0.000000
vn -0.709157 0.705050 0.000000
vn -0.835814 0.549013 0.000000
vn 0.000000 1.000000 -0.000000
vn 0.166754 0.769806 0.616110
vn 0.518069 0.680594 0.518070
vn 0.518069 0.680594 0.518070
vn 0.597336 0.778454 0.192871
vn 0.089336 0.995621 0.027531
vn 0.035579 0.989763 0.138216
vn 0.707107 0.000000 0.707107
vn 0.707107 0.000000 0.707107
vn 0.707107 0.000000 0.707107
vn 0.707107 0.000000 0.707107
vn 0.000000 0.835817 0.549009
vn 0.000000 0.702643 0.711543
vn 0.000000 0.549011 0.835815
vn 0.000000 0.549011 0.835815
vn 0.000000 0.000000 1.000000
vn 0.000000 0.000000 1.000000
vn 0.000000 0.000000 1.000000
vn 0.000000 0.000000 1.000000
vn 0.000000 1.000000 -0.000000
vn 0.000000 1.000000 -0.000000
vn 1.000000 -0.000000 0.000000
vn 1.000000 -0.000000 0.000000
vn 1.000000 -0.000000 0.000000
vn 1.000000 -0.000000 0.000000
vn 0.835815 0.549011 -0.000000
vn 0.835815 0.549011 -0.000000
vn 0.712606 0.701564 -0.000000
vn 0.549009 0.835817 -0.000000
vn 0.000000 1.000000 0.000000
vn 0.000000 1.000000 0.000000
vn 0.000000 1.000000 -0.000000
vn 0.000000 1.000000 -0.000000
vn 0.709157 0.705050 -0.000000
vn 0.549009 0.835816 -0.000000
vn 0.835815 0.549011 -0.000000
vn -1.000000 0.000000 0.000000
vn -1.000000 0.000000 0.000000
vn 1.000000 0.000000 0.000000
vn 1.000000 0.000000 0.000000
vn -0.166755 0.769805 -0.616111
vn -0.518070 0.680594 -0.518069
vn -0.518070 0.680594 -0.518069
vn -0.597336 0.778453 -0.192872
vn -0.089336 0.995621 -0.027531
vn -0.035579 0.989763 -0.138216
vn -0.707107 0.000000 -0.707107
vn -0.707107 0.000000 -0.707107
vn -0.707107 0.000000 -0.707107
vn -0.707107 0.000000 -0.707107
vn 0.000000 0.835816 -0.549010
vn 0.000000 0.702642 -0.711544
vn 0.000000 0.549011 -0.835815
vn 0.000000 0.549011 -0.835815
vn 0.000000 0.000000 -1.000000
vn 0.000000 0.000000 -1.000000
vn 0.000000 0.000000 -1.000000
vn 0.000000 0.000000 -1.000000
vn 0.000000 1.000000 0.000000
vn 0.000000 1.000000 0.000000
vn 0.000000 1.000000 0.000000
vn 0.000000 1.000000 0.000000
vn 0.000000 0.835816 -0.549010
vn -0.000000 0.705036 -0.709172
vn -0.000000 0.549011 -0.835815
vn 0.000000 0.000000 -1.000000
vn 0.000000 0.000000 -1.000000
vn -1.000000 0.000000 0.000000
vn -1.000000 0.000000 0.000000
vn -1.000000 0.000000 0.000000
vn -1.000000 0.000000 0.000000
vn -0.835814 0.549012 0.000000
vn -0.835814 0.549013 0.000000
vn -0.712607 0.701564 0.000000
vn -0.549011 0.835815 0.000000
vn 0.000000 1.000000 -0.000000
vn 0.000000 1.000000 -0.000000
vn 0.000000 1.000000 -0.000000
vn 0.166755 0.769805 -0.616111
vn 0.597337 0.778453 -0.192872
vn 0.518070 0.680593 -0.518070
vn 0.518070 0.680593 -0.518070
vn 0.035579 0.989763 -0.138216
vn 0.089336 0.995621 -0.027531
vn 0.707107 0.000000 -0.707107
vn 0.707107 0.000000 -0.707107
vn 0.707107 0.000000 -0.707107
vn 0.707107 0.000000 -0.707107
vn -0.000000 0.702642 -0.711544
vn -0.000000 0.835816 -0.549010
vn 0.000000 0.549011 -0.835815
vn -0.000000 0.549011 -0.835815
vn 0.000000 0.000000 -1.000000
vn 0.000000 0.000000 -1.000000
vn 0.000000 0.000000 -1.000000
vn 0.000000 0.000000 -1.000000
vn 0.000000 1.000000 0.000000
vn 0.000000 1.000000 -0.000000
vn 1.000000 0.000000 0.000000
vn 1.000000 0.000000 0.000000
vn 1.000000 0.000000 0.000000
vn 1.000000 0.000000 0.000000
vn 0.835815 0.549012 0.000000
vn 0.712607 0.701564 0.000000
vn 0.835815 0.549011 0.000000
vn 0.549009 0.835816 0.000000
vn 0.000000 1.000000 -0.000000
vn 0.000000 1.000000 -0.000000
vn -0.000000 0.159622 -0.987178
vn -0.000000 0.159622 -0.987178
vn -0.000000 0.159622 -0.987178
vn -0.000000 0.159622 -0.987178
vn -0.986788 0.162014 0.000000
vn -0.986788 0.162014 0.000000
vn -0.986788 0.162014 0.000000
vn -0.986788 0.162014 0.000000
vn -0.986788 0.162014 0.000000
vn -0.986788 0.162014 0.000000
vn -0.000000 0.159622 0.987178
vn -0.000000 0.159622 0.987178
vn -0.000000 0.159622 0.987178
vn -0.000000 0.159622 0.987178
vn 0.000000 0.159622 0.987178
vn 0.000000 0.159622 0.987178
vn 0.000000 0.159622 0.987178
vn 0.000000 0.159622 0.987178
vn 0.986788 0.162014 0.000000
vn 0.986789 0.162014 0.000000
vn 0.986789 0.162014 0.000000
vn 0.986788 0.162014 0.000000
vn 0.986788 0.162014 0.000000
vn 0.986788 0.162014 0.000000
vn 0.000000 0.159622 -0.987178
vn 0.000000 0.159622 -0.987178
vn 0.000000 0.159622 -0.987178
vn 0.000000 0.159622 -0.987178
s 1
g Border
usemtl initialShadingGroup
f 73/109/73 74/105/74 78/112/75 77/110/76
f 74/105/74 73/109/73 75/108/77 76/106/78
s off
f 77/110/79 78/112/80 79/111/81 80/107/82
s 1
f 75/108/77 73/109/73 83/115/83 84/116/84
f 73/109/73 77/110/85 82/114/86 83/115/83
s 2
f 77/110/87 80/107/88 81/113/89 82/114/90
s 1
f 76/106/78 75/108/77 84/116/91 85/117/92
f 85/117/92 84/116/91 94/126/93 95/127/94
f 84/116/84 83/115/83 93/125/95 94/126/96
f 83/115/83 82/114/86 92/124/97 93/125/95
s 2
f 82/114/90 81/113/89 91/123/98 92/124/99
s 3
f 87/119/100 86/118/101 79/111/102 78/112/103
s 1
f 78/112/104 74/105/74 88/120/105 87/119/106
f 74/105/74 76/106/78 89/121/107 88/120/105
f 76/106/78 85/117/92 90/122/108 89/121/109
f 89/121/109 90/217/108 119/151/110 118/150/111
f 88/120/105 89/121/107 118/150/112 117/149/113
f 87/119/106 88/120/105 117/149/113 116/148/114
f 95/127/94 96/128/115 90/122/108 85/117/92
f 97/129/116 101/132/117 102/211/118 98/213/119
f 98/213/119 100/216/120 99/133/121 97/129/116
s off
f 101/132/122 104/136/123 103/135/124 102/211/125
s 1
f 99/133/121 108/138/126 107/137/127 97/129/116
f 97/129/116 107/137/127 106/139/128 101/132/129
s 2
f 101/132/130 106/139/131 105/140/132 104/136/133
s 1
f 100/216/120 109/141/134 108/138/135 99/133/121
f 109/141/134 95/127/94 94/126/93 108/138/135
f 108/138/126 94/126/96 93/125/95 107/137/127
f 107/137/127 93/125/95 92/124/97 106/139/128
s 2
f 106/139/131 92/124/99 91/123/98 105/140/132
s 5
f 111/142/136 102/131/137 103/212/138 110/143/139
s 1
f 102/131/140 111/142/141 112/144/142 98/130/119
f 98/130/119 112/144/142 113/145/143 100/134/120
f 100/216/120 113/215/144 114/214/145 109/141/134
f 113/145/144 121/153/146 120/152/147 114/146/145
f 112/144/142 122/154/148 121/153/149 113/145/143
f 111/142/141 123/155/150 122/154/148 112/144/142
f 95/127/94 109/141/134 114/214/145 96/128/115
s 3
f 116/148/151 115/147/152 86/118/101 87/119/100
s 5
f 124/156/153 123/155/154 111/142/136 110/143/139
s 1
f 125/157/155 129/160/156 130/159/157 126/158/158
f 126/158/158 128/162/159 127/161/160 125/157/155
s off
f 129/160/161 132/164/162 131/163/163 130/159/164
s 1
f 127/161/160 136/166/165 135/165/166 125/157/155
f 125/157/155 135/165/166 134/167/167 129/160/168
s 8
f 129/160/169 134/167/170 133/168/171 132/164/172
s 1
f 128/162/159 137/169/173 136/166/174 127/161/160
f 137/169/173 147/171/175 146/170/176 136/166/174
f 136/166/165 146/170/177 145/172/178 135/165/166
f 135/165/166 145/172/178 144/173/179 134/167/167
s 8
f 134/167/170 144/173/180 143/174/181 133/168/171
s 3
f 139/222/182 130/159/183 131/163/184 138/176/185
s 1
f 130/159/186 139/222/187 140/221/188 126/158/158
f 126/158/158 140/221/188 141/220/189 128/162/159
f 128/162/159 141/220/190 142/218/191 137/169/173
f 141/178/190 118/150/111 119/151/110 142/179/191
f 140/177/188 117/149/113 118/150/112 141/178/189
f 139/175/187 116/148/114 117/149/113 140/177/188
f 147/171/175 137/169/173 142/218/191 148/180/192
f 149/181/193 150/184/194 154/183/195 153/182/196
f 150/184/194 149/181/193 151/186/197 152/185/198
s off
f 153/182/199 154/183/200 155/188/201 156/187/202
s 1
f 151/186/197 149/181/193 159/190/203 160/189/204
f 149/181/193 153/182/205 158/191/206 159/190/203
s 8
f 153/182/207 156/187/208 157/192/209 158/191/210
s 1
f 152/185/198 151/186/197 160/189/211 161/193/212
f 161/193/212 160/189/211 146/170/176 147/171/175
f 160/189/204 159/190/203 145/172/178 146/170/177
f 159/190/203 158/191/206 144/173/179 145/172/178
s 8
f 158/191/210 157/192/209 143/174/181 144/173/180
s 5
f 163/194/213 162/195/214 155/188/215 154/183/216
s 1
f 154/183/217 150/184/194 164/196/218 163/194/219
f 150/184/194 152/185/198 165/197/220 164/196/218
f 152/185/198 161/193/212 166/198/221 165/197/222
f 165/197/222 166/219/221 120/152/147 121/153/146
f 164/196/218 165/197/220 121/153/149 122/154/148
f 163/194/219 164/196/218 122/154/148 123/155/150
f 147/171/175 148/180/192 166/198/221 161/193/212
s 3
f 116/148/151 139/175/182 138/223/185 115/147/152
s 5
f 124/156/153 162/195/214 163/194/213 123/155/154
s off
f 96/128/223 114/214/224 168/209/225 167/199/226
s 10
f 114/146/227 120/152/228 169/201/229 168/200/230
f 166/219/231 170/207/232 169/201/229 120/152/228
s off
f 148/180/233 171/203/234 170/202/235 166/198/236
f 142/218/237 172/208/238 171/203/239 148/180/240
s 11
f 173/205/241 172/204/242 142/179/243 119/151/244
f 174/210/245 173/205/241 119/151/244 90/217/246
s off
f 90/122/247 96/128/248 167/199/249 174/206/250
